<?xml version="1.0" standalone="no"?>
<!DOCTYPE svg PUBLIC "-//W3C//DTD SVG 1.1//EN" "http://www.w3.org/Graphics/SVG/1.1/DTD/svg11.dtd" >
<svg xmlns="http://www.w3.org/2000/svg">
<metadata>
Created by FontForge 20120731 at Fri Aug 29 15:09:42 2014
 By Ads
</metadata>
<defs>
<font id="iconfont" horiz-adv-x="1000" >
  <font-face 
    font-family="iconfont"
    font-weight="500"
    font-stretch="normal"
    units-per-em="1024"
    panose-1="2 0 6 3 0 0 0 0 0 0"
    ascent="812"
    descent="-212"
    x-height="792"
    bbox="34 -135 977 792"
    underline-thickness="50"
    underline-position="-100"
    unicode-range="U+0078-F0069"
  />
<missing-glyph horiz-adv-x="374" 
d="M34 0v682h272v-682h-272zM68 34h204v614h-204v-614z" />
    <glyph glyph-name=".notdef" horiz-adv-x="374" 
d="M34 0v682h272v-682h-272zM68 34h204v614h-204v-614z" />
    <glyph glyph-name=".null" horiz-adv-x="0" 
 />
    <glyph glyph-name="nonmarkingreturn" horiz-adv-x="341" 
 />
    <glyph glyph-name="x" unicode="x" horiz-adv-x="1001" 
d="M281 543q-27 -1 -53 -1h-83q-18 0 -36.5 -6t-32.5 -18.5t-23 -32t-9 -45.5v-76h912v41q0 16 -0.5 30t-0.5 18q0 13 -5 29t-17 29.5t-31.5 22.5t-49.5 9h-133v-97h-438v97zM955 310v-52q0 -23 0.5 -52t0.5 -58t-10.5 -47.5t-26 -30t-33 -16t-31.5 -4.5q-14 -1 -29.5 -0.5
t-29.5 0.5h-32l-45 128h-439l-44 -128h-29h-34q-20 0 -45 1q-25 0 -41 9.5t-25.5 23t-13.5 29.5t-4 30v167h911zM163 247q-12 0 -21 -8.5t-9 -21.5t9 -21.5t21 -8.5q13 0 22 8.5t9 21.5t-9 21.5t-22 8.5zM316 123q-8 -26 -14 -48q-5 -19 -10.5 -37t-7.5 -25t-3 -15t1 -14.5
t9.5 -10.5t21.5 -4h37h67h81h80h64h36q23 0 34 12t2 38q-5 13 -9.5 30.5t-9.5 34.5q-5 19 -11 39h-368zM336 498v228q0 11 2.5 23t10 21.5t20.5 15.5t34 6h188q31 0 51.5 -14.5t20.5 -52.5v-227h-327z" />
    <glyph glyph-name="uni3432" unicode="&#x3432;" 
d="M845 13q-44 0 -77 53q54 54 84.5 125t30.5 151q0 106 -52.5 195.5t-142 141.5t-195 52t-195.5 -52t-142 -141.5t-52 -195.5t52 -195.5t142 -142t195.5 -52.5t196.5 53q35 -49 119 -72l3 -1h111v81h-78zM281 235q-44 0 -75 31.5t-31 75.5t31 75t75 31t75 -31t31 -75
t-31 -75.5t-75 -31.5zM494 23q-44 0 -75.5 31t-31.5 75t31.5 75t75.5 31t75 -31t31 -75t-31 -75t-75 -31zM437 341.5q0 23.5 16.5 40t40 16.5t40 -16.5t16.5 -40t-16.5 -40t-40 -16.5t-40 16.5t-16.5 40zM494 456q-44 0 -75.5 31.5t-31.5 75.5t31.5 75t75.5 31t75 -31
t31 -75t-31 -75.5t-75 -31.5zM608 342q0 44 31.5 75t75.5 31t75 -31t31 -75t-31 -75.5t-75 -31.5t-75.5 31.5t-31.5 75.5z" />
    <glyph glyph-name="uni3433" unicode="&#x3433;" 
d="M874 413h-236q-15 0 -25.5 10.5t-10.5 25.5v236q0 15 10.5 25.5t25.5 10.5h236q15 0 25.5 -10.5t10.5 -25.5v-236q0 -15 -10.5 -25.5t-25.5 -10.5zM819 612q0 8 -5 13.5t-13 5.5h-90q-8 0 -13.5 -5.5t-5.5 -13.5v-90q0 -8 5.5 -13t13.5 -5h90q8 0 13 5t5 13v90zM475 285
h-164v76h164v147h76v-277h-76v54zM475 672h76v-98h-76v98zM384 413h-236q-15 0 -26 10.5t-11 25.5v236q0 15 11 25.5t26 10.5h236q15 0 25.5 -10.5t10.5 -25.5v-236q0 -15 -10.5 -25.5t-25.5 -10.5zM329 612q0 8 -5 13.5t-13 5.5h-91q-7 0 -12.5 -5.5t-5.5 -13.5v-90
q0 -8 5.5 -13t12.5 -5h91q8 0 13 5t5 13v90zM111 361h99v-76h-99v76zM148 231h236q15 0 25.5 -10.5t10.5 -25.5v-236q0 -15 -10.5 -25.5t-25.5 -10.5h-236q-15 0 -26 10.5t-11 25.5v236q0 15 11 25.5t26 10.5zM202 32q0 -8 5.5 -13.5t12.5 -5.5h91q8 0 13 5.5t5 13.5v90
q0 8 -5 13t-13 5h-91q-7 0 -12.5 -5t-5.5 -13v-90zM511 180h181v-77h-141v-126h-76v202h36v1zM674 343h182v-76h-182v76zM818 217h92v-281v-14h-281v92h189v203z" />
    <glyph glyph-name="uni3434" unicode="&#x3434;" 
d="M807.5 370q-57.5 0 -98.5 -41t-41 -98.5t41 -98.5t98.5 -41t98.5 41t41 98.5t-41 98.5t-98.5 41zM870 243v-27h-46v-14h46v-27h-46v-33h-34v33h-44v27h44v14h-44v27h31l-37 77h37l24 -52q5 -10 7 -17q2 8 6 17l25 52h37l-38 -77h32zM360 419q-5 4 -11 4h-7q-7 0 -11.5 -4
t-4.5 -10q0 -5 4.5 -9t11.5 -4h7q6 0 11 4t5 9q0 6 -5 10zM759 385v154q0 15 -10 25t-25 10h-619q-15 0 -25 -10t-10 -25v-283h578q8 46 38 80.5t73 48.5zM206 340q5 -5 12 -5h30q8 0 13 -4t5 -10t-5 -10.5t-13 -4.5h-58q-7 0 -12.5 5.5t-5.5 12.5v110q0 8 5.5 13t12.5 5h58
q8 0 13 -4t5 -11q0 -6 -5 -10t-13 -4h-30q-7 0 -12 -5t-5 -12v-54q0 -7 5 -12zM394 324q0 -7 -4 -12.5t-10.5 -5.5t-10.5 5t-4 11v29q0 6 -5 11t-11 5h-7q-6 0 -11 -5t-5 -11v-27q0 -7 -4.5 -12.5t-10.5 -5.5t-10 5.5t-4 12.5v110q0 8 5 13t12 5h63q7 0 12 -5t5 -13v-110z
M519 306q-7 -4 -13 1t-10 12q-5 8 -9 17t-7 16q-3 6 -8 9t-9 3q-3 0 -6 -3t-3 -11v-27q0 -7 -4 -12.5t-10.5 -5.5t-10.5 5.5t-4 12.5v110q0 8 5 13t12 5h63q7 0 12 -5t5 -13v-49q0 -7 -2.5 -11.5t-6.5 -5.5q-5 -2 -4 -6t3 -8q5 -9 12 -24q9 -16 -5 -23zM604 306h-29
q-8 0 -13 5.5t-5 12.5v110q0 8 5 13t13 5h29q27 0 38.5 -15.5t13.5 -38.5q1 -6 1 -10v-8v-9q0 -5 -1 -11q-2 -23 -13.5 -38.5t-38.5 -15.5zM488.5 418q-4.5 4 -11.5 4h-7q-7 0 -11.5 -4t-4.5 -9t4.5 -9t11.5 -4h7q7 0 11.5 4t4.5 9t-4.5 9zM70 216v-33q0 -14 10 -24.5
t25 -10.5h564q-19 32 -22 68h-577zM599 423q-3 0 -8 -5t-5 -11v-55q0 -7 5 -11.5t8 -4.5q17 0 22.5 13.5t5.5 29.5t-5.5 30t-22.5 14z" />
    <glyph glyph-name="uni3435" unicode="&#x3435;" 
d="M673 350q53 0 91 38l36 36q36 35 71 71l36 36q7 7 7 17.5t-7 18t-17.5 7.5t-18.5 -8l-143 -142q-22 -23 -54.5 -23t-55.5 22.5t-23 55.5t23 56l142 142q8 8 8 18.5t-7.5 17.5t-18 7t-17.5 -7l-143 -143q-38 -38 -38 -91t38 -91t91 -38zM655 461q7 -7 17.5 -7t18.5 7
l143 143q7 7 7 17.5t-7.5 18t-18 7.5t-17.5 -7l-143 -143q-7 -8 -7 -18.5t7 -17.5zM133 17q-17 -16 -17 -39t16.5 -39.5t39.5 -16.5t39 17l235 234l-78 79zM902 17l-688 688q-17 17 -40 17t-39 -17q-17 -17 -16 -41v-84q0 -26 18 -44l344 -344q19 -19 45 -19t44 19l253 -253
q17 -17 40 -17t39 16.5t16 39.5t-16 39z" />
    <glyph glyph-name="uni3436" unicode="&#x3436;" 
d="M192 597l55 -14v59q0 8 -5.5 12.5t-13.5 2.5l-152 -37q-8 -2 -13.5 -9t-5.5 -15v-533q0 -8 5.5 -12t13.5 -2l88 21v506q0 9 6 15t16 6h6zM483 615v52q0 6 -4.5 11t-9.5 6l-152 37h-3q-8 0 -8 -8v-533q0 -5 4 -10t10 -7l87 -21v430q0 10 7 19t17 11zM557 537l48 -12v86
q0 8 -7 8h-3l-153 -37q-5 -1 -9 -6t-4 -11v-533q0 -10 10 -8l90 22v470q0 9 6 15.5t16 6.5q3 0 6 -1zM646 119v376l-90 22h-3q-8 0 -8 -8v-533q0 -5 4 -10t10 -7l152 -37q11 -2 11 8v146l-52 13q-10 2 -17 11t-7 19zM853 587v24q0 5 -4.5 10.5t-9.5 6.5l-152 37h-3
q-8 0 -8 -8v-533q0 -5 4 -10.5t10 -6.5l87 -21v458q0 10 7 19t17 11zM969 597h-3l-152 -37q-5 -2 -9.5 -7t-4.5 -11v-532q0 -11 11 -8l152 37q6 1 10 6t4 11v533q0 8 -8 8zM284 179v376l-90 22h-3q-8 0 -8 -8v-533q0 -6 4 -11t10 -6l152 -37q11 -3 11 8v146l-52 13
q-10 2 -17 10.5t-7 19.5z" />
    <glyph glyph-name="uni3437" unicode="&#x3437;" 
d="M762 721h-495q-21 0 -35.5 -14.5t-14.5 -35.5v-698q0 -21 14.5 -36t35.5 -15h495q21 0 36 15t15 36v698q0 21 -15 35.5t-36 14.5zM457 672h116v-20h-116v20zM518 -52q-16 0 -27.5 11.5t-11.5 28t11.5 27.5t27.5 11t27.5 -11t11.5 -27.5t-11.5 -28t-27.5 -11.5zM773 60
h-516v546h516v-546zM403 347v-33h92v-32h-92v-31h92v-72h40v72h92v31h-92v32h92v33h-76l91 159h-48l-61 -113q-13 -25 -19 -37q-6 15 -16 35l-65 115h-45l91 -159h-76z" />
    <glyph glyph-name="uni3438" unicode="&#x3438;" 
d="M607 702q57 29 122 16t109 -64q41 -49 45 -112.5t-30 -114.5q-16 0 -34 5q-70 21 -135 100q-65 78 -76 151q-1 9 -1 19zM219 177q-1 -50 49 -58l361 242q-37 24 -67.5 60.5t-46.5 77.5zM231 100q-45 -46 -32 -88q4 -15 16 -25q14 -11 35 -12q40 -4 93.5 25.5t114.5 97.5
q119 134 226 153q56 9 100 -14q42 -22 64 -68q37 -74 10 -167l-50 14q21 74 -6 130q-15 31 -42 45q-28 15 -67 8q-89 -15 -196 -136q-70 -78 -134.5 -111.5t-116.5 -28.5q-36 3 -62 23t-35 51q-10 32 1 68.5t43 70.5zM824 394q-86 28 -162 119q-67 81 -87 164
q-53 -65 -41 -148q16 -48 54 -92t82 -64q82 -24 154 21z" />
    <glyph glyph-name="uni3439" unicode="&#x3439;" 
d="M412 681q-22 -71 -57 -138.5t-67 -114.5t-61.5 -90.5t-47 -85t-17.5 -79.5q0 -104 73 -177.5t177 -73.5t177.5 73.5t73.5 177.5q0 48 -35.5 136t-80.5 168t-85 140.5t-50 63.5zM865 532q-6 26 -41 73t-69 82t-40 35q-5 -48 -23 -96t-30 -81t-7 -57q9 -44 46.5 -68
t80.5 -15t67.5 46t15.5 81z" />
    <glyph glyph-name="uni343A" unicode="&#x343a;" 
d="M516.5 372q72.5 0 123.5 51t51 123.5t-51 124t-123.5 51.5t-124 -51.5t-51.5 -124t51.5 -123.5t124 -51zM809 104v35q0 82 -58 140t-140 58h-198q-82 0 -140 -58t-58 -140v-179q0 -16 11 -26.5t26 -10.5h522q16 0 27 10.5t11 26.5v139q0 3 -1 4.5t-2 0.5z" />
    <glyph glyph-name="uni343B" unicode="&#x343b;" 
d="M720.5 415q8.5 0 14.5 6t6 14.5t-6 14.5t-14.5 6t-14.5 -6t-6 -14.5t6 -14.5t14.5 -6zM396.5 456q-8.5 0 -14.5 -6t-6 -14.5t6 -14.5t14.5 -6t14.5 6t6 14.5t-6 14.5t-14.5 6zM396.5 387q-8.5 0 -14.5 -6.5t-6 -15t6 -14.5t14.5 -6t14.5 6t6 14.5t-6 15t-14.5 6.5z
M563 423l75 3v30l-179 -8v-30l74 4v-41h-89v-30h89v-45h-74q-8 0 -8 -8v-67q0 -19 13 -32t32 -13h105q19 0 32 13t13 32v67q0 8 -8 8h-75v45h90v30h-90v42zM616 276v-45q0 -6 -4.5 -10.5t-10.5 -4.5h-105q-6 0 -10.5 4.5t-4.5 10.5v45h135zM766 456h180v-30h-180v30z
M219 291h105v30h-105v60h105v30h-105v30v7v8h-23q-7 0 -7 -8v-37h-68v22v8v7h-22q-8 0 -8 -7v-30v-15q0 -6 -4.5 -10.5t-10.5 -4.5v-30q15 0 26.5 8.5t16.5 21.5h70v-60h-105v-30h105v-75h-120v-30h120h30h120v30h-120v75zM961 216h-8h-202q-6 0 -10.5 4.5t-4.5 10.5v142
q0 8 -8 8h-37v-30h15v-120q0 -19 13 -32t32 -13h210q7 0 7 8v22h-7zM788 239v15h53v-23h30v23h52v-8v-7v-8h23q7 0 7 8v15v30v22v30v45q0 7 -7 7h-31l16 23h-38l-37 -54l-38 54h-37l16 -23h-31q-8 0 -8 -7v-45v-30v-22v-30v-8v-7v-8h23q7 0 7 8zM894 358h29v-22h-45z
M871 306h52v-22h-52v22zM788 358h30l15 -22h-45v22zM788 306h53v-22h-53v22zM382 313v-112v-7v-8h22q8 0 8 8v112v7v8h-23q-7 0 -7 -8z" />
    <glyph glyph-name="uni343C" unicode="&#x343c;" 
d="M899 36l-192 191q-1 2 -7 6q52 79 52 172q0 131 -93 224t-224 93t-223.5 -93t-92.5 -224t92.5 -223.5t223.5 -92.5q94 0 173 51q4 -5 5 -7l192 -191q19 -20 46.5 -20t47 19.5t19.5 47.5t-19 47zM435 189q-89 0 -152.5 63.5t-63.5 153t63.5 153t153 63.5t153 -63.5
t63.5 -153t-63.5 -153t-153.5 -63.5z" />
    <glyph glyph-name="uni343D" unicode="&#x343d;" 
d="M515.5 722q-124.5 0 -212 -88t-87.5 -212q0 -46 32 -116.5t71.5 -130t91 -126t72 -90t32.5 -37.5q13 14 33 37.5t71.5 90t91 126t72 130t32.5 116.5q0 124 -87.5 212t-212 88zM515.5 215q-85.5 0 -146.5 60.5t-61 146.5t61 146.5t146.5 60.5t146 -60.5t60.5 -146.5
t-60.5 -146.5t-146 -60.5z" />
    <glyph glyph-name="uni343E" unicode="&#x343e;" 
d="M748 -65l-74 132q20 19 24.5 47.5t-9.5 53.5q-13 24 -37 34.5t-48 5.5q14 19 16 44t-10 48q-14 24 -39 34.5t-51 3.5l-3 4q19 20 23 47.5t-10 52.5t-39 35t-51 3l-3 4q20 19 24 47t-10 53t-40 35.5t-52 2.5l-57 100l-22 -13l56 -99q-25 -18 -32 -49t8.5 -59t45.5 -37.5
t58 4.5v-1q-25 -18 -32 -49t8.5 -59t45.5 -37.5t58 4.5v-1q-25 -18 -32.5 -49t8.5 -60q13 -23 36.5 -33.5t48.5 -5.5q-15 -19 -17 -44t11 -48q15 -27 44 -37t57 3l73 -130z" />
    <glyph glyph-name="uni343F" unicode="&#x343f;" 
d="M903 78v79q-52 10 -53 14q-1 5 -3 11q3 5 12 14l16 16l8 6l-59 78q-38 -31 -48 -35q-6 2 -14 4q-2 1 -6.5 13.5t-8.5 25.5l-4 13h-79q-8 -48 -21 -52q-6 -1 -13 -4q-4 2 -16 11t-22 17l-9 8l-59 -79q29 -30 31 -40q-2 -5 -3 -10l-49 -11v-79q42 -9 50 -16q2 -6 6 -13
l-7 -7q-5 -5 -10 -9.5t-9 -8t-7 -5.5l-3 -2l61 -79q47 31 55 33q6 -3 12 -5q3 -1 6 -13.5t4.5 -23t1.5 -12.5h79q3 45 9 47l16 6q3 -1 12.5 -9.5t17.5 -16.5l8 -7l78 79q-29 20 -37 31q4 7 6 14q1 3 14 7.5t25 6.5zM702 18q-41 0 -70 29.5t-29 70.5t29 70t70 29t70.5 -29
t29.5 -70t-29.5 -70.5t-70.5 -29.5zM449 343q68 0 125.5 56.5t57.5 127.5t-55.5 130.5t-123 59.5t-124 -61t-56.5 -132q0 -70 54 -125.5t122 -55.5zM489 304h-181q-41 0 -81 -23t-55 -71q-23 -71 -45 -142q-9 -25 88 -39t231 -14q16 0 23 5t7 15.5t-3 21.5t-6.5 28.5
t-3.5 31.5q0 36 11 69.5t23 53t20 35.5t2 22.5t-30 6.5z" />
    <glyph glyph-name="uni3440" unicode="&#x3440;" 
d="M765 135q-22 22 3 -1q108 -103 149 -145l-72 -72l-171 168q8 -9 20 -20q-69 -51 -153.5 -64t-167.5 14t-147 91q-70 70 -95.5 163t-2 185t91.5 160.5t160 92t185 -2.5t163 -96q64 -64 91 -148.5t13 -170t-67 -154.5zM289.5 544.5q-75.5 -75.5 -74 -183.5t79 -185.5
t185.5 -79t183.5 74t74 184t-79 185.5t-185.5 78.5t-183.5 -74z" />
    <glyph glyph-name="uni3441" unicode="&#x3441;" 
d="M923 51l-67 -131q-76 -3 -150.5 14t-136 47.5t-119 70.5t-102.5 84.5t-84 89.5t-66.5 85.5t-47.5 72.5t-30 50t-10 19l47 221l140 45l140 -222l-108 -69l341 -286l46 88l187 -133z" />
    <glyph glyph-name="uni3442" unicode="&#x3442;" 
d="M518.5 717q108.5 0 200.5 -53.5t145.5 -145.5t53.5 -201t-53.5 -201t-145.5 -145.5t-200.5 -53.5t-200.5 53.5t-145.5 145.5t-53.5 201t53.5 201t145.5 145.5t200.5 53.5zM811 472l-100 100q-216 -279 -284 -352q-2 7 -35.5 35t-65.5 53t-32 24l-82 -73l189 -187z" />
    <glyph glyph-name="uni3443" unicode="&#x3443;" 
d="M521 311q81 0 148.5 61.5t67.5 137.5q0 77 -65.5 141.5t-145.5 64.5t-147 -66t-67 -143q0 -76 64 -136t145 -60zM139 13q6 35 13 55t19 45t22 53q12 36 41.5 60t59.5 33t59 9h215h133q99 0 134 -102q10 -28 19 -48t16 -40t19 -65q8 -34 -59 -59q-112 -41 -335 -37
q-224 3 -316 47q-44 22 -40 49z" />
    <glyph glyph-name="uni3444" unicode="&#x3444;" 
d="M801 430q0 119 -83.5 202.5t-202 83.5t-202 -83.5t-83.5 -202.5q-47 0 -80.5 -33.5t-33.5 -80.5v-285q0 -48 33.5 -81.5t80.5 -33.5h571q47 0 80.5 33.5t33.5 81.5v285q0 47 -33.5 80.5t-80.5 33.5zM515 616q77 0 131.5 -54.5t54.5 -131.5h-371q0 77 54 131.5t131 54.5z
" />
    <glyph glyph-name="uni3445" unicode="&#x3445;" 
d="M914 525l-133 135q-321 -439 -411 -538q-3 10 -39.5 64t-71 102.5t-35.5 49.5l-109 -99l252 -251z" />
    <glyph glyph-name="uni3446" unicode="&#x3446;" 
d="M915 195h-320v-238l-479 360l479 359v-238h320v-243z" />
    <glyph glyph-name="uni3447" unicode="&#x3447;" 
d="M818 411l-32 29v196h-94l-1 -96l-172 159l-304 -284q-11 -10 -27 -25.5t-43 -49t-27 -50.5q0 -12 48.5 -7t48.5 -3v-279q0 -27 19 -45.5t45 -18.5h476q26 0 44.5 18.5t18.5 45.5v279q0 11 50 4.5t50 5.5q0 14 -25 44.5t-50 53.5zM723 64q0 -26 -18.5 -44.5t-44.5 -18.5
h-286q-26 0 -44.5 18.5t-18.5 44.5v320l206 188l206 -188v-320zM406 286v-95q0 -26 18.5 -44.5t44.5 -18.5h95q27 0 45.5 18.5t18.5 44.5v95q0 27 -18.5 45.5t-45.5 18.5h-95q-26 0 -44.5 -18.5t-18.5 -45.5z" />
    <glyph glyph-name="uni3448" unicode="&#x3448;" 
d="M197.5 245q11.5 -6 38.5 20t54 69q18 28 29 55q31 -41 79 -64.5t104 -23.5q53 0 100 21.5t78 60.5q8 -17 18 -34q27 -46 53.5 -74t38 -21.5t1 44t-37.5 83.5q-19 33 -40 58q13 34 13 69q0 87 -65.5 147.5t-158.5 60.5t-158.5 -60.5t-65.5 -147.5q0 -37 14 -72
q-29 -26 -58 -72q-27 -43 -37.5 -78t1 -41zM630 237h-256q-4 -1 -11 -3t-28 -10t-39.5 -17.5t-41.5 -27.5t-40 -38q-30 -38 -54 -95t-33 -91t-9 -38h800q0 13 -24 75q-70 184 -189 230q-36 15 -75 15z" />
    <glyph glyph-name="uni3449" unicode="&#x3449;" 
d="M748 369q22 35 22 87q0 107 -75.5 182.5t-182.5 75.5t-182.5 -75.5t-75.5 -182.5q0 -52 22 -87q-22 -6 -45.5 -20.5t-40.5 -30.5t-31.5 -31.5t-21.5 -24.5l-8 -10v-338h767v338q1 0 -7 9.5t-22.5 24.5t-32 31t-41 30.5t-45.5 21.5zM511.5 624q69.5 0 119 -49.5
t49.5 -118.5q0 -52 -33 -86q-33 -5 -66.5 -12.5t-50.5 -13.5l-17 -6q-62 22 -136 32q-33 33 -33 86q0 69 49 118.5t118.5 49.5zM559 144v-107h-92v107q-31 23 -31 62q0 32 22.5 54t54.5 22t54.5 -22t22.5 -54q0 -39 -31 -62z" />
    <glyph glyph-name="uni344B" unicode="&#x344b;" 
d="M525.5 710q-108.5 0 -200.5 -53.5t-145.5 -145.5t-53.5 -201t53.5 -201t145.5 -145.5t200.5 -53.5t200.5 53.5t145.5 145.5t53.5 201t-53.5 201t-145.5 145.5t-200.5 53.5zM792 243h-200v-199h-133v199h-200v134h200v200h133v-200h200v-134z" />
    <glyph glyph-name="uni344C" unicode="&#x344c;" 
d="M831 359q0 95 -47 176t-128 128t-176.5 47t-176 -47t-127.5 -128t-47 -176t47 -176t127.5 -128t176 -47t176.5 47t128 128t47 176zM483 90q-110 0 -188 77.5t-78 187.5t78 188t188 78t188 -78t78 -188t-78 -187.5t-188 -77.5zM771 146l-73 -76l142 -160l82 90zM528 533
h-89v-133h-133v-89h133v-133h89v133h132v89h-132v133z" />
    <glyph glyph-name="uni344D" unicode="&#x344d;" 
d="M525 443l-266 267l-133 -133l266 -267l133 -133l267 -267l133 134l-333 333zM126 44l133 -134l266 267l-133 133zM659 310l266 267l-133 133l-267 -267l67 -66z" />
    <glyph glyph-name="uni344E" unicode="&#x344e;" 
d="M756 421v51q0 28 -8 50t-21 35t-28.5 22.5t-31 13t-28 5.5t-20.5 1h-8h-278q-36 0 -63 -14t-40 -34t-21 -40t-9 -34l-2 -14v-114q0 -24 -4 -46.5t-10.5 -40.5t-14 -34t-15.5 -27.5t-14.5 -20t-10.5 -12.5l-4 -4q57 0 99 10t62.5 24t32.5 28.5t14 24.5l2 10h274
q31 0 56 9.5t40 21.5t26 32.5t15.5 33t7 32.5t2.5 22v9zM852 204v145q-1 5 -1.5 13t-4.5 28.5t-11 36t-22 28.5t-35 13v-110q0 -4 -3 -15.5t-12.5 -30t-23.5 -35t-40 -28.5t-58 -12h-141l-145 -1v-6q0 -5 0.5 -12.5t7.5 -27.5t20.5 -35t44.5 -27.5t74 -12.5h213
q0 -4 2 -10.5t14 -23t32 -29t62.5 -23t99.5 -10.5l-24 29q-49 72 -49 156z" />
    <glyph glyph-name="uni344F" unicode="&#x344f;" 
d="M815 198v375v5q0 4 -3 12.5t-7.5 15.5t-14.5 12.5t-23 5.5h-591q-2 0 -5.5 -0.5t-13 -3t-16.5 -7.5t-12.5 -15.5t-5.5 -24.5v-373q0 -3 0.5 -6.5t3.5 -13t8.5 -17t16.5 -13.5t26 -6h583q15 0 26 6t16 13t8 16t3.5 13t0.5 6zM563 517h185q5 0 9 -3.5t4 -9.5t-4 -9.5
t-9 -3.5h-185q-6 0 -10 3.5t-4 9.5t4 9.5t10 3.5zM563 437h185q5 0 9 -3.5t4 -9.5t-4 -9.5t-9 -3.5h-185q-6 0 -10 3.5t-4 9.5t4 9.5t10 3.5zM283 304q-27 0 -48 11t-31.5 26.5t-17 31.5t-8.5 27l-1 11q0 29 11 51t26.5 32t31 15.5t26.5 6.5l10 1v-106h108q0 -30 -11 -52
t-26.5 -32t-31.5 -16t-27 -7h-11zM496 330h-27v28h27v-28zM496 410h-27v28h27v-28zM496 490h-27v28h27v-28zM748 331h-185q-6 0 -10 3.5t-4 9.5t4 9.5t10 3.5h185q5 0 9 -3.5t4 -9.5t-4 -9.5t-9 -3.5zM922 64v349q0 23 -14 36t-28 14l-14 1h-24v-295q0 -40 -46 -50l-7 -1
h-560v-56q0 -22 14.5 -34.5t28.5 -14.5l14 -2h585q15 0 26.5 5.5t15.5 13.5t7 16t2 13t0 5z" />
    <glyph glyph-name="uni3450" unicode="&#x3450;" 
d="M517.5 658q86.5 0 135 -66.5t48.5 -162.5q58 0 58 1q0 77 -28.5 141t-84 104t-128.5 40t-130 -40.5t-86.5 -105t-29.5 -140.5h58q0 94 50.5 161.5t137 67.5zM786 429q0 -4 -0.5 -8.5t-7 -12t-20.5 -7.5h-56q-3 -1 -8.5 -0.5t-13.5 7.5t-8 20h-314q0 -3 -0.5 -7.5t-8 -12
t-19.5 -7.5h-56q-13 0 -20 7t-8 14l-2 7q-2 0 -6 -0.5t-13.5 -3.5t-17 -8.5t-13.5 -17.5t-6 -28v-395q0 -3 0.5 -7t3.5 -14.5t8.5 -18.5t18 -14.5t29.5 -6.5h538q2 0 6 0.5t14 3.5t17.5 8.5t13.5 17t6 26.5v400l-8 24q-16 34 -49 34zM530 146l-1 -115l-56 -1l-1 115
q-17 0 -31 15.5t-19 31.5l-5 16q0 21 8.5 37t21 23.5t25 12t21.5 5.5l9 1q21 0 37.5 -8t25 -19t13.5 -22.5t7 -18.5l1 -8q0 -17 -14 -33t-28 -24z" />
    <glyph glyph-name="uni3451" unicode="&#x3451;" 
d="M540 393.5q-7 8.5 -20 8.5q-23 0 -40 -29.5t-17 -57.5q0 -19 7.5 -29t21.5 -10q23 0 40 39q15 37 15 58q0 12 -7 20.5zM785 743l-531 -1h-4q-2 0 -8 -1.5t-10.5 -4.5t-8 -10t-3.5 -16v-799v-3q0 -3 2 -8.5t5 -10.5t10 -8.5t17 -3.5h500h6q5 0 16.5 3.5t20 9t15.5 19.5
t7 33v767q0 4 -1 9.5t-9.5 15t-23.5 9.5zM524 262q-22 -19 -47 -19t-46 21q-18 20 -18 56q0 41 28 77t69 36q24 0 37 -13q10 -11 13 -24l8 29h44l-30 -99q-3 -11 -4 -18q-2 -5 -2 -10q0 -7 5 -13q6 -8 14 -8q18 0 39 28q19 24 19 68q0 63 -53 90q-29 15 -75 15
q-80 0 -125 -45q-45 -46 -45 -103q0 -70 53 -112q54 -42 107 -42q43 0 81 16q20 8 42 23l5 4l17 -25q-32 -25 -70 -38t-78 -13q-88 0 -148 67q-45 51 -45 121q0 72 57 127q54 53 145 53q74 0 119 -36q47 -38 47 -105q0 -54 -29 -89q-33 -39 -72 -39q-19 0 -32 14
q-11 12 -11 25v3v4q-9 -16 -19 -26zM886 278q-4 0 -9.5 -1t-14.5 -9.5t-9 -21.5v-169l7 3q5 1 16.5 7.5t20 13.5t15.5 19t7 25v98q0 22 -17 31q-7 4 -16 4zM887 744q-4 0 -9.5 -1t-15 -9.5t-9.5 -23.5v-167q3 0 7.5 0.5t16 4t20 9.5t15.5 19.5t7 32.5v102q1 0 0 8t-9 16.5
t-23 8.5zM886 511q-4 0 -9.5 -1t-14.5 -9t-9 -22v-169q3 0 7.5 0.5t16 4t20 10t15.5 20t7 32.5v102q0 3 -1 8.5t-9.5 14.5t-22.5 9zM153 743q-4 0 -9.5 -1t-14.5 -9t-9 -23v-802q-1 -3 0 -8.5t9.5 -14.5t23.5 -9h3q3 0 8.5 2t10 5t8 10t3.5 16l-1 803q1 0 -0.5 7.5t-9 15.5
t-22.5 8z" />
    <glyph glyph-name="uni3452" unicode="&#x3452;" 
d="M436.5 249q72.5 0 124 61.5t51.5 148.5t-51.5 148.5t-124 61.5t-124 -61.5t-51.5 -148.5t51.5 -148.5t124 -61.5zM660 222q-13 15 -28 20.5t-27.5 2.5t-23 -8t-16.5 -10l-6 -5q-1 -2 -3 -5.5t-10.5 -12t-19.5 -15.5t-30 -12.5t-42 -5.5h-27q-23 0 -42 5.5t-30 13t-19 15
t-11 12t-3 5.5q-2 2 -6 5.5t-16 9.5t-23.5 8t-27 -3t-28.5 -20q-21 -24 -40.5 -62.5t-29 -63.5t-9.5 -27l-24 -51q0 -22 12.5 -35t25.5 -15l12 -2h545q2 0 5.5 0.5t12 3.5t15 8t12 15.5t5.5 24.5l-24 51q-4 11 -10.5 29t-27 59t-41.5 65zM893 69q-20 60 -48 122
q-13 13 -27 18t-25 2.5t-20 -7t-14 -8.5t-5 -5l49 -121q17 -48 12 -51q5 -11 0.5 -20.5t-9 -15t-13 -10t-12 -5.5t-5.5 -2h93q2 0 5 0.5t11.5 3.5t15 8t12 15.5t5.5 24.5zM608 300q2 0 12.5 -10.5t31.5 -20.5t50 -10q58 8 88 49.5t30 110.5q0 68 -40.5 116.5t-97.5 48.5
q-12 0 -30 -4t-21 -8q14 6 20.5 -54t-4 -129.5t-39.5 -88.5z" />
    <glyph glyph-name="uni3453" unicode="&#x3453;" 
d="M857 525q25 0 43 18t18 44v61q0 26 -18 44t-43 18h-677q-25 0 -43 -18t-18 -44v-61q0 -26 18 -44t43 -18h123v-30h-123q-25 0 -43 -18t-18 -44v-461q0 -26 18 -44t43 -18h677q25 0 43 18t18 44v461q0 26 -18 44t-43 18h-123v30h123zM395 525h246v-30h-246v30zM334 3
q0 -13 -9 -22t-22 -9h-123q-13 0 -22 9t-9 22v61q0 13 9 22t22 9h123q13 0 22 -9t9 -22v-61zM334 156q0 -12 -9 -21t-22 -9h-123q-13 0 -22 9t-9 21v62q0 13 9 22t22 9h123q13 0 22 -9t9 -22v-62zM334 310q0 -13 -9 -22t-22 -9h-123q-13 0 -22 9t-9 22v62q0 12 9 21t22 9
h123q13 0 22 -9t9 -21v-62zM518 3q0 -13 -9 -22t-21 -9h-93q-12 0 -21 9t-9 22v61q0 13 9 22t21 9h93q12 0 21 -9t9 -22v-61zM518 156q0 -12 -9 -21t-21 -9h-93q-12 0 -21 9t-9 21v62q0 13 9 22t21 9h93q12 0 21 -9t9 -22v-62zM518 310q0 -13 -9 -22t-21 -9h-93q-12 0 -21 9
t-9 22v62q0 12 9 21t21 9h93q12 0 21 -9t9 -21v-62zM703 3q0 -13 -9 -22t-22 -9h-92q-13 0 -22 9t-9 22v61q0 13 9 22t22 9h92q13 0 22 -9t9 -22v-61zM703 156q0 -12 -9 -21t-22 -9h-92q-13 0 -22 9t-9 21v62q0 13 9 22t22 9h92q13 0 22 -9t9 -22v-62zM703 310q0 -13 -9 -22
t-22 -9h-92q-13 0 -22 9t-9 22v62q0 12 9 21t22 9h92q13 0 22 -9t9 -21v-62zM887 3q0 -13 -9 -22t-21 -9h-93q-12 0 -21 9t-9 22v61q0 13 9 22t21 9h93q12 0 21 -9t9 -22v-61zM887 156q0 -12 -9 -21t-21 -9h-93q-12 0 -21 9t-9 21v62q0 13 9 22t21 9h93q12 0 21 -9t9 -22
v-62zM764 402h93q12 0 21 -9t9 -21v-62q0 -13 -9 -22t-21 -9h-93q-12 0 -21 9t-9 22v62q0 12 9 21t21 9z" />
    <glyph glyph-name="uni3454" unicode="&#x3454;" 
d="M600 378h-120v-119h120v119zM116 466v-296h800v296h-800zM384 378h-166v-118h119v23h-23v47h70v-120h-213v216h213v-48zM647 211h-214v215h214v-215zM862 310l-72 -73h-24v22l62 59l-61 61v22h22l73 -71v-20z" />
    <glyph glyph-name="uni3455" unicode="&#x3455;" 
d="M666 353h-135v-32h135v32zM498 411h-134v-32h134v32zM666 411h-135v-32h135v32zM902 427q-9 33 -34.5 55.5t-58.5 30.5q6 32 -6 64t-40 53q-29 23 -66.5 26t-68.5 -14q-15 32 -45.5 52.5t-67.5 20.5q-35 0 -64.5 -17.5t-45.5 -47.5q-29 15 -63.5 12.5t-63 -23
t-41.5 -51.5t-9 -64q-33 -6 -59 -28t-37 -54q-11 -34 -3.5 -66.5t30.5 -57.5q-24 -23 -32 -55.5t2 -66.5q10 -33 36 -55.5t59 -28.5q-5 -33 7.5 -64.5t40.5 -52t62.5 -24t64.5 10.5q15 -30 44 -48t64 -18.5t64.5 16.5t45.5 46q29 -15 63.5 -13t63.5 21.5t43 50.5t10 64
q33 5 59.5 26.5t38.5 53.5q11 34 4.5 66.5t-29.5 57.5q24 23 33 55.5t-1 66.5zM364 294v-11h-33v155h167v32h-205v30h205v40h33v-40h205v-30h-205v-32h167v-144h-167v-38q59 1 116 2q-8 7 -17 15l25 19q49 -41 86 -76l-28 -22q-17 18 -36 36q-122 -2 -381 -9l-3 34
q105 0 205 1v38h-134zM559 167l-28 -22q-24 29 -53 60l25 19q35 -32 56 -57zM316 98q-16 9 -32 17q27 40 45 90l33 -13q-22 -55 -46 -94zM632 131q-9 -40 -63 -40h-114q-59 0 -59 58v55h36v-52q0 -29 32 -29h98q33 0 38 21q4 19 6 46q5 -2 34 -14q-3 -25 -8 -45zM716 105
q-22 31 -59 75l26 19q26 -27 63 -73zM498 353h-134v-32h134v32z" />
    <glyph glyph-name="uni3456" unicode="&#x3456;" 
d="M902 427q-9 33 -34.5 55.5t-58.5 30.5q6 32 -6 64t-40 53q-29 23 -66.5 26t-68.5 -14q-15 32 -45.5 52.5t-67.5 20.5q-35 0 -64.5 -17.5t-45.5 -47.5q-29 15 -63.5 12.5t-63 -23t-41.5 -51.5t-9 -64q-33 -6 -59 -28t-37 -54q-11 -34 -3.5 -66.5t30.5 -57.5
q-24 -23 -32 -55.5t2 -66.5q10 -33 36 -55.5t59 -28.5q-5 -33 7.5 -64.5t40.5 -52t62.5 -24t64.5 10.5q15 -30 44 -48t64 -18.5t64.5 16.5t45.5 46q29 -15 63.5 -13t63.5 21.5t43 50.5t10 64q33 5 59.5 26.5t38.5 53.5q11 34 4.5 66.5t-29.5 57.5q24 23 33 55.5t-1 66.5z
M411 320v-234h-36v186q-32 -39 -68 -69q-13 19 -22 31q72 58 124 145h-110v32h128q6 11 11 22h37q-5 -11 -11 -22h275v-32h-292q-17 -32 -36 -59zM745 205h-123v-62q0 -56 -51 -56q-30 0 -82 1q-2 18 -6 38q43 -4 79 -4q24 0 24 26v57h-141v33h141v23l69 44h-184v32h242v-32
l-91 -58v-9h123v-33zM745 469h-122v-35h-35v35h-131v-29h-35v29h-124v32h124v42h35v-42h131v43h35v-43h122v-32z" />
    <glyph glyph-name="uni3457" unicode="&#x3457;" 
d="M850 -87h-672q-26 0 -45 18.5t-19 45.5v671q0 27 19 45.5t45 18.5h672q26 0 45 -18.5t19 -45.5v-671q0 -27 -19 -45.5t-45 -18.5zM359 554l-28 -23q33 -35 61 -69l32 27q-28 31 -65 65zM654 554q-25 -38 -59 -72l30 -23q35 36 63 74zM757 331v34h-294q19 28 33 58h235v34
h-222q15 44 29 96l-40 8q-12 -56 -31 -104h-174v-34h159q-15 -31 -36 -58h-144v-34h115q-50 -51 -122 -86q14 -17 24 -34q37 21 68 44v-26h69q-7 -46 -31 -73q-30 -35 -113 -56q11 -15 22 -36q89 27 122 65q30 33 40 100h149q-6 -49 -10 -77q-6 -36 -50 -36q-37 0 -81 3
q7 -21 10 -41q60 -1 82 -1q67 0 78 68q6 49 13 108q35 -23 78 -37q14 20 28 38q-88 18 -142 77h136zM437 331h139q28 -40 66 -68h-275q40 31 70 68z" />
    <glyph glyph-name="uni3458" unicode="&#x3458;" 
d="M852 -86h-672q-26 0 -45 18.5t-19 45.5v671q0 27 19 45.5t45 18.5h672q26 0 45 -18.5t19 -45.5v-671q0 -27 -19 -45.5t-45 -18.5zM735 547h-438v-467h38v25h362v-24h38v466zM335 512h362v-372h-362v372zM367 198q119 72 180 167v-117q0 -47 -41 -47q-24 0 -57 4
q5 -22 8 -39q30 -1 58 -1q69 0 69 72v153h96v34h-96v72h-37v-72h-187v-34h163q-65 -94 -181 -159q16 -17 25 -33z" />
    <glyph glyph-name="uni3459" unicode="&#x3459;" 
d="M398 -83v321h-238l359 479l360 -479h-238v-321h-243z" />
    <glyph glyph-name="uni345A" unicode="&#x345a;" 
d="M120 438h320v239l479 -360l-479 -360v239h-320v242z" />
    <glyph glyph-name="uni345B" unicode="&#x345b;" 
d="M641 717v-320h238l-360 -480l-359 480h238v320h243z" />
    <glyph glyph-name="uni345C" unicode="&#x345c;" 
d="M904 424l-70 -70l-173 -173q-143 -143 -155 -156q-1 0 -6.5 -6.5t-10 -10.5t-14 -10.5t-24.5 -11.5t-34 -10l-300 -66q45 203 67 300q4 19 9.5 34t12.5 25t11.5 15.5t12 11.5t8.5 8q12 11 150 149.5t165 165.5l78 79q12 12 29.5 12t29.5 -12l214 -215q12 -12 12 -29.5
t-12 -29.5zM457 95q5 4 11 10q9 9 52 51.5t104.5 104.5t95.5 96l-43 43l-263 -262zM624 453l-262 -263l35 -35l262 263zM259 169q-8 -28 -19 -68.5t-18 -66.5l-7 -27q97 27 161 44q20 6 39 16l-141 141q-9 -19 -15 -39zM312 260q-6 -5 -10 -10l42 -42l263 262l-43 43
l-94 -95l-106 -104q-44 -45 -52 -54zM661 610l-39 -39l-2 -2l-8 -8l-13 -13l156 -156l9 8l8 9l5 5l39 39z" />
    <glyph glyph-name="uni345D" unicode="&#x345d;" 
d="M762 182h-494v179q-24 -20 -55 -25v-336q0 -11 8 -19t20 -8h548q11 0 19 8t8 19v337q-31 5 -54 25v-180zM805 621q6 0 11 -2v31q0 11 -8 19t-19 8h-548q-12 0 -20 -8t-8 -19v-31q6 2 13 2h579zM805 588h-43h-494h-42l-110 -118q0 -33 23.5 -56.5t56.5 -23.5q13 0 26 4v1
h1q3 1 7 3h1q4 2 7 4l1 1q15 10 25 25l4 8q8 16 8 34q0 -33 23 -56.5t56.5 -23.5t57 23.5t23.5 56.5q0 -33 23 -56.5t56.5 -23.5t56.5 23.5t23 56.5q0 -33 23.5 -56.5t56.5 -23.5t56.5 23.5t23.5 56.5q0 -21 10 -39l1 -1q3 -4 4 -6q0 -1 0.5 -1.5t1.5 -0.5q2 -3 4 -5
q0 -1 1 -2q3 -3 6 -5v-1q11 -9 24 -14q5 -2 9 -3q10 -2 19 -2q33 0 56.5 23.5t23.5 56.5z" />
    <glyph glyph-name="uni345E" unicode="&#x345e;" 
d="M814 118q1 8 2 12v3v3l1 9q0 9 -1 16q1 20 -3 39q-2 10 -5 24q-1 1 -2 4.5t-1 4.5q-4 13 -4 15q-1 2 -6 14q-2 8 -3 11q-2 6 -9 22v1v0q0 1 -2 5q-28 72 -34 108q-4 21 -4 40q0 55 35 95q3 4 0.5 9t-8.5 4q-35 -6 -63.5 -25.5t-46.5 -46.5t-28 -50t-16 -47
q-35 66 -50 140t-15 174q0 4 -4 6.5t-8 -0.5q-23 -13 -41 -32.5t-28 -36.5t-19 -44.5t-13 -44t-10 -47.5q0 -105 -49 -179q-6 23 -17.5 42t-29.5 36t-30.5 26t-36.5 25q-26 17 -38 26q-4 4 -9 0.5t-3 -9.5q15 -41 15 -99t-7 -105q-4 -34 -5.5 -51.5t-2 -49t2 -50.5t10 -46
t19.5 -46t32 -39.5t47 -36.5q39 -19 80 -31q1 -1 3 -1q8 0 8 8q0 6 -5 8q-22 17 -32 41.5t-8.5 50t3.5 54.5q7 62 1 90l2 -1q17 -11 26 -18t18.5 -20.5t11.5 -29.5q1 -5 6.5 -6.5t8.5 2.5q33 45 33 107q5 22 8 34t11 28t21 27q2 -96 40 -163q3 -5 9 -4q5 1 6 6q13 62 53 82
q-7 -13 -8.5 -28t2.5 -32t7.5 -28t10.5 -31q14 -34 16 -50q2 -8 2 -18q4 -55 -64 -99q-6 -4 -4 -10q3 -5 8 -5h2q11 3 21 7q171 85 191 199v2z" />
    <glyph glyph-name="uni345F" unicode="&#x345f;" 
d="M758 710l-276 -362l275 10l-401 -448l198 349l-284 8l265 350z" />
    <glyph glyph-name="uni3460" unicode="&#x3460;" 
d="M840 -87h-653q-16 0 -27 11t-11 27v649q0 16 11 27t27 11h63v-38q0 -31 22 -53t53 -22t53 22t22 53v38h38v-38q0 -31 22 -53t53 -22t53.5 22t22.5 53v38h37v-38q0 -31 22 -53t53.5 -22t53.5 22t22 53v38h63q15 0 26 -11t11 -27v-649q0 -16 -11 -27t-26 -11zM739 425h-452
q-15 0 -26 -10.5t-11 -26.5t11 -26.5t26 -10.5h452q16 0 27 10.5t11 26.5t-11 26.5t-27 10.5zM739 263h-452q-15 0 -26 -11t-11 -26.5t11 -26.5t26 -11h452q16 0 27 11t11 26.5t-11 26.5t-27 11zM745 101h-464q-13 0 -22 -9.5t-9 -22t9 -22t22 -9.5h464q13 0 22.5 9.5
t9.5 22t-9.5 22t-22.5 9.5zM701.5 563q-15.5 0 -26.5 11t-11 26v75q0 16 11 27t26.5 11t26.5 -11t11 -27v-75q0 -15 -11 -26t-26.5 -11zM513.5 563q-15.5 0 -26.5 11t-11 26v75q0 16 11 27t26.5 11t26.5 -11t11 -27v-75q0 -15 -11 -26t-26.5 -11zM324.5 563
q-15.5 0 -26.5 11t-11 26v75q0 16 11 27t26.5 11t27 -11t11.5 -27v-75q0 -15 -11.5 -26t-27 -11z" />
    <glyph glyph-name="uni3461" unicode="&#x3461;" 
d="M325 424q0 -14 9 -23.5t21 -9.5h1q5 -67 51 -120t106.5 -53t106.5 53t51 120q13 0 22 9.5t9 23.5q0 21 -18 29q10 31 10 62q0 79 -53 135t-127.5 56t-127.5 -56t-53 -135q0 -31 10 -62q-18 -8 -18 -29zM908 18q-112 110 -260 146q-4 2 -8 2h-9q-4 0 -8 -2
q-46 -24 -109.5 -24t-109.5 24q-4 2 -8 2h-7h-4q-151 -36 -266 -148q-5 -5 -5 -12v-60q0 -7 5 -11.5t12 -4.5h765q7 0 12 4.5t5 11.5v60q0 7 -5 12z" />
    <glyph glyph-name="uF0001" unicode="&#xf0001;" horiz-adv-x="1024" 
d="M253 588q-30 -25 -29.5 -46.5t29.5 -45.5l23 11q-24 20 -24 35.5t24 34.5q35 30 35 56t-35 56q-26 21 -39 16q-11 -4 16 -27q30 -27 29.5 -46.5t-29.5 -43.5zM499 561q-30 -25 -29.5 -46.5t29.5 -45.5l22 11q-23 19 -23 34.5t23 35.5q36 30 36 56t-36 55q-25 22 -38 17
q-12 -5 16 -28q30 -27 29 -46t-29 -43zM841 86q-5 -46 -15.5 -69t-24.5 -30.5t-42 -9.5q-17 -1 -31.5 12t-22 28.5t-16 39t-11.5 29.5q-11 21 -27 19q-21 -1 -10 -45q3 -13 9 -28q14 -43 0.5 -63t-41 -17.5t-41.5 25.5q-3 7 -40 25.5t-42 29.5q-10 25 5 72q3 10 0 11
q-1 0 -5 -1q-16 -8 -27.5 -20.5t-17 -24.5t-8 -28.5t-3 -26t0.5 -23t1 -14.5q0 -6 -3.5 -13t-9.5 -12t-12.5 -6t-14.5 7t-15 24q-5 13 -16 44q-27 74 -34 74q-5 -1 -4 -36q0 -26 -11 -49t-27.5 -35t-36 -13.5t-35.5 15.5q-19 19 -32.5 46.5t-17.5 45.5l-4 17
q-4 -5 -8.5 -13.5t-14.5 -32.5t-13 -44.5t5 -41.5t31 -31q33 -16 61.5 -23t36 -5.5t11.5 0.5h546q4 2 10 4.5t21 12t26 21t19 31t6 41.5q-8 76 -29 111q-17 27 -24 -21q-1 -4 -2 -9zM104 441v-150q0 -62 44 -106t106 -44h519q62 0 106 44t44 106v150h-819zM752 577
q23 -19 23 -34.5t-23 -35.5l23 -11q28 24 28.5 45.5t-28.5 46.5q-29 24 -30 43.5t30 46.5q26 22 15 27q-12 5 -38 -16q-35 -30 -35 -56t35 -56z" />
    <glyph glyph-name="uF0002" unicode="&#xf0002;" horiz-adv-x="1024" 
d="M781 255v-319q0 -22 -9.5 -35.5t-29 -13.5t-29.5 13.5t-10 35.5v319q-59 16 -99 64t-40 108v99q0 74 53 127t129 53q74 0 124 -52.5t50 -127.5v-99q0 -60 -40 -108t-99 -64zM346 319v-383q0 -49 -39 -49q-22 0 -32.5 13.5t-10.5 35.5v383q-49 10 -94 35t-69 59v260
q0 13 12.5 23t28 10t28 -10t12.5 -23v-213h12h16v213q0 13 13 23t28.5 10t27.5 -9.5t12 -23.5v-213h29v213q0 14 12 23.5t27.5 9.5t28.5 -10t13 -23v-213h16h12v213q0 13 12 23t28 10t28.5 -10t12.5 -23v-260q-24 -34 -69.5 -59t-94.5 -35z" />
    <glyph glyph-name="uF0003" unicode="&#xf0003;" horiz-adv-x="1024" 
d="M776 286q-40 -3 -220 -59t-213 -87q-15 -14 -24 -50t-11.5 -58.5t-2.5 -30.5q3 -6 8 -14.5t17 -23.5t21 -16t93 30t183.5 73t180 91t80.5 78q-1 15 -4.5 27t-8 19.5t-14 12.5t-15.5 7.5t-18.5 3t-17.5 0.5t-18.5 -1.5t-15.5 -1.5zM916 303q-10 23 -67 87.5t-89 71.5
q-38 8 -214 -26.5t-224 -61.5q-120 -67 -120 -134q0 -77 13 -117q3 -10 19.5 -42.5t31.5 -60.5l15 -27q-1 6 -1.5 17t2 40t8 52.5t20.5 47t37 31.5q45 18 100.5 37.5t138.5 46.5t151 39.5t97 2.5q37 -12 53.5 -26t14.5 -21l-2 -7q3 3 7 9t8.5 19.5t0.5 21.5zM243 370
q64 25 141.5 52t188.5 54t158 19q24 -4 42.5 -12t28 -16.5t15.5 -16t7 -13.5l2 -5q-4 41 -13 59q-10 23 -67 87.5t-90 71.5q-38 9 -214 -26t-223 -62q-120 -67 -120 -134q0 -77 12 -117q7 -22 66 -130q0 7 -0.5 17.5t1.5 39.5t8 52.5t20.5 47t36.5 32.5z" />
    <glyph glyph-name="uF0004" unicode="&#xf0004;" horiz-adv-x="1024" 
d="M922 249h-819q2 -6 6.5 -17t19.5 -42t32 -59.5t45 -63t58 -59.5t70.5 -42t82.5 -17h-14q-1 -3 -2.5 -6.5t-4 -13t-2 -16.5t7.5 -13t20 -6h181q23 0 28 13.5t-2 27.5l-7 14h-14q46 0 87.5 16.5t72.5 42.5t57.5 58.5t43.5 64t29.5 59t18 43t5.5 16.5zM197 505
q-29 -25 -29 -46.5t29 -45.5l23 11q-23 19 -23 34.5t23 35.5q35 30 35 56t-35 55q-26 22 -39 17q-11 -5 16 -28q30 -27 29.5 -46t-29.5 -43zM498 587q-30 -25 -29.5 -46.5t29.5 -45.5l22 11q-23 19 -23 34.5t23 35.5q36 30 36 56t-36 55q-25 22 -38 17q-12 -5 16 -28
q30 -27 29 -46t-29 -43zM805 467q24 -20 24 -35.5t-24 -35.5l23 -10q29 24 29 45t-29 47q-29 24 -29.5 43t29.5 46q27 23 16 27q-13 6 -39 -16q-35 -30 -35 -56t35 -55zM813 276q-3 8 -8.5 21t-25.5 46t-44.5 58t-65.5 45.5t-86 20.5h-140q-32 0 -61.5 -10.5t-51.5 -27
t-42 -37t-33.5 -41t-23 -37.5t-14.5 -27l-5 -11h601z" />
    <glyph glyph-name="uF0005" unicode="&#xf0005;" horiz-adv-x="1024" 
d="M662 373v154h-174q-10 14 -6.5 26t22.5 28q35 30 35 56.5t-35 56.5q-26 22 -39 16q-11 -5 16 -27q30 -28 29.5 -47t-29.5 -44q-41 -34 -24 -65h-230q26 40 -27 84q-26 22 -39 16q-11 -4 16 -27q25 -21 29 -38.5t-11 -34.5h-58v-554l-1 -5v-11t1.5 -13t4 -14.5t8 -14
t13.5 -12.5t21 -8t29 -3h366q15 0 28 2.5t21.5 7.5t15 11t10 13.5t5.5 13.5t2.5 13.5t0.5 12.5v9v5v353h-1zM824 416q-28 23 -54.5 32t-45 5.5t-33 -10t-22.5 -14.5l-7 -7v-49v-40q9 4 22 8t39 10.5t45.5 2.5t23.5 -21q6 -23 10 -57t4 -75t-14 -74t-42 -43
q-35 -14 -57 -20.5t-26 -7.5h-5v-77q47 12 78 22q63 19 101 75.5t44.5 121t-9.5 126t-52 92.5z" />
    <glyph glyph-name="uF0006" unicode="&#xf0006;" horiz-adv-x="1024" 
d="M579 -4l259 710h-655l259 -710h137zM429 542l12 6q24 12 36.5 18t30.5 11.5t31.5 3t25.5 -11.5q16 -12 50 -14t63.5 3t50.5 11q16 6 -25 -123.5t-90 -263.5t-49 -131h-109l-164 518q0 -1 23 -12.5t53.5 -19.5t60.5 5zM442 -31l-95 -82h327l-95 82h-137z" />
    <glyph glyph-name="uF0007" unicode="&#xf0007;" horiz-adv-x="1024" 
d="M202 541q8 3 11 15.5t-0.5 26t-12 21.5t-16.5 4.5t-11 -15.5t1 -26t12 -21.5t16 -4.5zM257 566.5q9 3.5 12 17t-1 29t-13.5 24t-18.5 5t-12 -17t1 -29t13.5 -24t18.5 -5zM390.5 602q11.5 5 16 23t-1.5 38.5t-18 31.5t-24 6.5t-16.5 -22.5t1.5 -39t18.5 -32t24 -6z
M155 509q7 3 9.5 14t-1 23.5t-11 19.5t-14.5 4t-9.5 -14t1 -23.5t11 -19.5t14.5 -4zM308 592q9 4 12 17.5t-1.5 29t-13.5 23.5t-18 4.5t-12 -17t1 -29t13.5 -24t18.5 -4.5zM313 555q-35 -23 -69 -23q-5 -1 -13.5 -2.5t-29 -11t-35.5 -22.5t-26 -37.5t-7 -55.5
q23 -83 78 -210q3 -6 6 -16.5t7 -33.5t1 -36q0 -5 0.5 -13t4.5 -29.5t11 -38.5t22.5 -33.5t35.5 -20.5q4 -2 9 -4t19 -3.5t26.5 1t25.5 15t20 34.5q2 1 6 4t11.5 14.5t9.5 24t-4 34t-23 45.5q-3 7 -7 20.5t-9 53t-2 75.5q2 31 22 90t24 81q3 24 4.5 47t2 36.5t0.5 14.5
q-5 9 -12.5 15.5t-22 12t-37 -1.5t-49.5 -26zM434 555l3 -6l-3 7v-1zM766.5 483q8.5 -4 17.5 4.5t13.5 24t1 29t-12 17.5t-17.5 -4.5t-13.5 -24t-1 -29t12 -17.5zM589 465q1 3 4 7q-1 2 -2 -2q-1 -2 -2 -5zM716.5 508.5q8.5 -3.5 17.5 4.5t13.5 23.5t1.5 29t-12 17.5
t-18 -4.5t-13.5 -24t-1 -29t12 -17zM819.5 457q7.5 -3 16 4.5t12.5 21.5t1 26t-11 15.5t-16 -4t-12 -21.5t-1 -26.5t10.5 -15.5zM779 449q-15 0 -32 5.5t-26 10.5l-10 6q-26 20 -48.5 26.5t-36.5 1t-21.5 -12t-11.5 -14.5v-15q0 -13 1.5 -36.5t5.5 -47.5q3 -22 23 -81
t22 -90q3 -36 -1.5 -73t-10.5 -57l-6 -19q-51 -71 -9 -107l9 -6q7 -22 19.5 -35.5t25.5 -17t25 -3.5t19 2l8 2q21 5 36 21t22 33.5t11 38.5t4.5 29t0.5 13q-2 10 -1.5 20.5t2.5 22.5t5 21.5t5 16t2 5.5q24 57 43 109.5t26.5 76t7.5 24.5q3 31 -6.5 56t-26.5 38t-34 21.5
t-30 11.5zM883 486q-7 3 -14.5 -4t-11 -19.5t-1 -23.5t9.5 -13.5t14.5 4t11 19t1 23.5t-9.5 14zM635.5 518q11.5 -5 23.5 6.5t17.5 32t1.5 38.5t-15.5 23t-24 -6.5t-18 -32t-1 -38.5t16 -23z" />
    <glyph glyph-name="uF0008" unicode="&#xf0008;" horiz-adv-x="1024" 
d="M668 -60q41 43 -1 173q-22 67 -35 75q-3 3 -2 -8q6 -36 129 -230l31 -51q-1 0 -3 3q-26 30 -85 233l-11 42q1 -2 3 -8q17 -47 104 -143q64 -70 65 -54q0 2 -1 6q-27 69 -46 154.5t-30 155t-25 136.5t-40 119t-66 81q-60 44 -113 66t-90.5 23.5t-69.5 -7.5t-52 -25.5
t-34 -33.5t-20 -28t-6 -12l-9 -3q-6 -2 -21.5 -8.5t-29 -15t-27.5 -22.5t-20 -30q-4 -8 -6 -17.5t-2.5 -20t-0.5 -18.5t1.5 -20t2 -18t3 -19t2.5 -16q2 -11 2.5 -22t-0.5 -16l-1 -5q9 9 13 22q2 6 3 13.5t2 11.5v5l14 -13q7 -19 15 -35l16 -22l-22 -2l29 -9q0 -18 -1 -37
l-6 -41q1 -1 2 -3t7.5 -4t17 -0.5t17.5 -0.5t9 -4l2 -3l4 -29q6 -4 12 -6l12 -3q2 -6 5 -11l6 -5h20q1 -2 2 -5.5t5.5 -11t9.5 -13t14 -9.5t19 -3q16 2 39 18t38 29.5t15 14.5l13 -63q-20 -7 -49 -10q-21 -1 -39 -48t-36.5 -101.5t-38.5 -68.5q-34 -23 106 -9l140 17
q7 -1 17.5 -1.5t34 5t37.5 19.5z" />
    <glyph glyph-name="uF0009" unicode="&#xf0009;" horiz-adv-x="1024" 
d="M923 191q-1 3 -6 18.5t-8 23.5t-8.5 21.5t-12 24.5t-13.5 20q-14 18 -32 36.5t-26.5 30t-14.5 29.5l-2 10q-2 6 -10 23t-19 32t-31.5 34t-46 32.5t-64 23t-83.5 9.5q-53 0 -100.5 -19t-75.5 -42t-51.5 -53t-30 -42t-10.5 -19q-3 -1 -9.5 -2.5t-24 -6.5t-34 -12t-36.5 -19
t-34 -26.5t-24 -35t-10 -43.5q0 -32 6.5 -56.5t16 -36t19 -19t16.5 -8.5l7 -2h4q10 -24 31.5 -39.5t48.5 -15.5t49 15.5t31 39.5h372q9 -24 31 -39.5t49 -15.5t49 15.5t31 39.5h22q4 2 12.5 9.5t18 26.5t3.5 38zM521 367h-191q3 5 9 14t26 32t43 39q23 17 51.5 30.5
t44.5 17.5l17 5v-138zM577 366v138q8 -1 21 -3t45 -12.5t54 -27t40 -40.5t24 -39l7 -16h-191z" />
    <glyph glyph-name="uF000A" unicode="&#xf000a;" horiz-adv-x="1024" 
d="M880 656h-743q-16 0 -27 -11t-11 -27v-469q0 -15 11 -26t27 -11h250l285 -149v119q-1 23 19 30h189q16 0 27 11t11 26v469q0 16 -11 27t-27 11zM917 341l-352 -75l-1 -52h-110v54l-354 73v76l409 -101l408 101v-76z" />
    <glyph glyph-name="uF000B" unicode="&#xf000b;" horiz-adv-x="1024" 
d="M851 617h-81v-113h-133v113h-268v-113h-133v113h-58q-27 0 -47 -19.5t-20 -47.5v-599q0 -28 20 -47.5t47 -19.5h673q28 0 47.5 19.5t19.5 47.5v599q0 28 -19.5 47.5t-47.5 19.5zM828 -20h-627v379h627v-379zM269 703h67v-132h-67v132zM671 703h67v-132h-67v132z" />
    <glyph glyph-name="uF000C" unicode="&#xf000c;" horiz-adv-x="1024" 
d="M689 644h-361q-12 0 -21 -9t-9 -21v-134q0 -12 9 -20.5t21 -8.5h18q-14 7 -14 23v113q0 11 7 18.5t18 7.5h303q11 0 18.5 -7.5t7.5 -18.5v-113q0 -16 -15 -23h18q12 0 21 8.5t9 20.5v134q0 12 -9 21t-21 9zM218 512h581v-179h-581v179zM840 488h-15v-204h-633v204h-15
q-32 0 -55 -22.5t-23 -55.5v-367q0 -32 23 -55t55 -23h663q32 0 55 23t23 55v367q0 33 -23 55.5t-55 22.5z" />
    <glyph glyph-name="uF000D" unicode="&#xf000d;" horiz-adv-x="1024" 
d="M307 -81q0 -14 -10 -23.5t-24 -9.5h-34q-14 0 -24 9.5t-10 23.5v33q0 14 10 23.5t24 9.5h34q14 0 24 -9.5t10 -23.5v-33zM819 -81q0 -14 -10 -23.5t-24 -9.5h-34q-14 0 -24 9.5t-10 23.5v33q0 14 10 23.5t24 9.5h34q14 0 24 -9.5t10 -23.5v-33zM845 705h-671
q-28 0 -48 -20t-20 -48v-541q0 -28 20 -47.5t48 -19.5h671q28 0 48 19.5t20 47.5v541q0 28 -20 48t-48 20zM272 120q-28 0 -47.5 20t-19.5 48t19.5 48t47.5 20t48 -20t20 -48t-20 -48t-48 -20zM751 129q-28 0 -47.5 19.5t-19.5 47.5t19.5 48t47.5 20t48 -20t20 -48
t-20 -47.5t-48 -19.5zM842 401q0 -14 -10 -24t-24 -10h-597q-14 0 -24 10t-10 24v197q0 14 10 24t24 10h597q14 0 24 -10t10 -24v-197z" />
    <glyph glyph-name="uF0011" unicode="&#xf0011;" horiz-adv-x="1024" 
d="M235 580q-59 -58 -90 -135t-31 -154.5t31 -154t90 -135.5q78 -78 183.5 -106t211 0t184.5 106q59 59 89.5 135.5t30.5 154t-30.5 154.5t-89.5 135q-79 79 -184.5 107t-211 0t-183.5 -107zM766 436l-145 -145l145 -145l-97 -97l-145 145l-144 -145l-97 97l145 145
l-145 145l97 96l144 -145l145 145z" />
    <glyph glyph-name="uF0012" unicode="&#xf0012;" horiz-adv-x="1024" 
d="M762 336l-216 205q-25 23 -59 22.5t-57 -25.5l-295 -311q-23 -25 -22 -59t26 -57l216 -205q25 -24 59 -23t57 26l295 311q23 25 22 59t-26 57zM462 -39q-20 -21 -48.5 -22.5t-48.5 17.5l-177 168q-20 19 -20 47t20 49l34 37l121 -115l42 44l-121 115l35 37l121 -115
l42 44l-121 115l34 36l121 -114l42 44l-121 114l22 24q20 21 48.5 22.5t48.5 -17.5l177 -168q20 -19 20 -47t-20 -49zM881 526l-16 14l32 33q22 23 21 55t-24 53.5t-55 21t-54 -23.5l-31 -33l-15 14q-25 23 -59 22.5t-57 -25.5l-2 -1q-23 -25 -22 -59t26 -57l142 -135
q25 -23 58.5 -22t57.5 25l1 2q23 24 22 58t-25 58z" />
    <glyph glyph-name="uF0013" unicode="&#xf0013;" horiz-adv-x="1024" 
d="M765 424v213h-95v-107l-158 175l-313 -349h627zM199 -54h627v-60h-627v60zM199 324v-345h627v345h-627zM482 103h-190v158h190v-158zM734 103h-190v158h190v-158z" />
    <glyph glyph-name="uF0014" unicode="&#xf0014;" horiz-adv-x="1024" 
d="M675 279h-103v103h-102v-103h-102v-103h102v-102h102v102h103v103zM695 590q0 20 -13 34.5t-32 14.5h-265q-19 0 -32 -14.5t-13 -34.5h-232v-641h819v641h-232zM851 513v-56h-73v27h-103v-27h-307v27h-103v-27h-80v56h666zM185 26v406h666v-406h-666z" />
    <glyph glyph-name="uF0015" unicode="&#xf0015;" horiz-adv-x="1024" 
d="M515 710h4h3h-7zM845 590q-7 30 -30 46.5t-67 34.5q-35 14 -104 26.5t-125 12.5t-125 -12.5t-105 -26.5q-21 -9 -33.5 -15t-27.5 -15.5t-23.5 -22t-11.5 -28.5l-22 -250v-345h58v-54q0 -31 24 -44t48.5 0t24.5 44v54h386v-54q0 -31 24 -44t48.5 0t24.5 44v54h58v345z
M376 647h286q13 0 18.5 -10t0 -20t-18.5 -10h-286q-14 0 -19.5 10t0 20t19.5 10zM232 348l26 181q3 19 12 28t30 9h438q21 0 29.5 -9t11.5 -28l26 -181q5 -35 -27 -35h-518q-33 0 -28 35zM338 133q0 -8 -5.5 -13.5t-13.5 -5.5h-79q-8 0 -14 5.5t-6 13.5v32q0 8 6 13.5
t14 5.5h79q8 0 13.5 -5.5t5.5 -13.5v-32zM817 133q0 -8 -5.5 -13.5t-13.5 -5.5h-79q-8 0 -14 5.5t-6 13.5v32q0 8 6 13.5t14 5.5h79q8 0 13.5 -5.5t5.5 -13.5v-32z" />
    <glyph glyph-name="uF0016" unicode="&#xf0016;" horiz-adv-x="1024" 
d="M859 462h-102q0 101 -70 173.5t-169 72.5t-169 -72.5t-70 -173.5h-102q-29 0 -49 -24t-20 -58v-491h819v491q0 34 -20 58t-48 24zM698 118h-98v-98h-127v98h-103v131h103v98h127v-98h98v-131zM347 462q0 68 50 116t120.5 48t120.5 -48t50 -116h-341z" />
    <glyph glyph-name="uF0017" unicode="&#xf0017;" horiz-adv-x="1024" 
d="M920 44q-5 14 -16.5 24.5t-21.5 15t-30 11.5t-28 11l-60 26q-45 19 -68 29q-6 2 -17.5 5t-17.5 5q-13 8 -36 59q-4 0 -11 1t-11 2q0 14 10 26t12 19t3.5 26.5t5.5 28.5q3 6 13 11t13 9q7 11 12 34q7 42 -3 63q-1 4 -4 8.5t-4 7.5t-2 9q-1 10 2 44t3 35q1 29 -7 60
q-8 26 -21 33l-27 5l-16 15q-23 15 -48 19.5t-50 0t-39.5 -9t-35.5 -13.5q-96 -32 -64 -187q2 -11 -4 -23t-6 -16q1 -1 2 -16.5t2 -23.5t3.5 -20.5t7 -21t10.5 -11.5q1 -1 5 -2.5t8 -2.5h4q2 -23 7 -68q2 -6 11 -16t11 -22l-17 -4q-23 -51 -35 -59q-6 -2 -18 -5t-17 -5
q-24 -10 -69 -29.5t-60 -25.5q-8 -4 -28 -11t-30 -11.5t-21.5 -15t-16.5 -24.5q0 -9 -1 -58t-1 -69h360l26 183l-22 47l51 25l42 -25l-23 -48l41 -182h344q0 20 -1 69t-1 58z" />
    <glyph glyph-name="uF0018" unicode="&#xf0018;" horiz-adv-x="1024" 
d="M184 -105h230v517l-230 1v-518zM253 347h92v-86h-92v86zM253 197h92v-87h-92v87zM253 46h92v-86h-92v86zM782 390v108h-69v108h-23v108h-46v-108h-23v-108h-69v-108h-46v-495h323v495h-47zM644 -19h-92v86h92v-86zM667 240h-92v86h92v-86zM782 110h-92v87h92v-87z" />
    <glyph glyph-name="uF0019" unicode="&#xf0019;" horiz-adv-x="1024" 
d="M456 -113h112v34h-112v-34zM667 444q-40 35 -93 49q-30 8 -62 8q-91 0 -155.5 -57.5t-64.5 -139.5l1 -18q4 -41 26 -77l5 -5l12 -12q7 -7 15.5 -17.5t17.5 -24.5t16.5 -28.5t12 -32t4.5 -34.5l3 -25q6 -24 27 -24h159q21 0 28 24l3 25q0 13 2.5 27t7.5 26t11 23.5
t13 21.5t14 18.5t13 15.5t11 12t8 7l3 3q22 37 26 77l1 18q0 82 -65 140zM675 290q-3 -30 -19 -57q-1 -2 -17.5 -20t-31 -37.5t-28 -52.5t-13.5 -65l-1 -2h-25v92h-56v-92h-26v2q-1 31 -12 55.5t-35.5 57t-36.5 53.5l-1 1l-5 9q-16 26 -19 56l-1 15q0 61 48 103
q48 43 116 43q24 0 46 -6q40 -10 70 -37q47 -43 48 -103zM422 -62h179v50h-179v-50zM539 706h-44v-164h44v164zM703 665l-42 17l-57 -153l41 -17zM432 527l-58 152l-42 -17l58 -152zM730 442l111 116l-31 32l-112 -116zM324 487l-111 115l-31 -32l111 -116z" />
    <glyph glyph-name="uF001A" unicode="&#xf001a;" horiz-adv-x="1024" 
d="M362 687v-186h571v186h-571zM362 208h571v186h-571v-186zM362 -85h571v186h-571v-186zM115 505h170v188h-170v-188zM115 207h170v189h-170v-189zM115 -90h170v189h-170v-189z" />
    <glyph glyph-name="uF001B" unicode="&#xf001b;" horiz-adv-x="1024" 
d="M514.5 702q-111.5 0 -205.5 -55t-149 -149.5t-55 -205.5t55 -205t149 -149t205.5 -55t205.5 55t149 149t55 205t-55 205.5t-149 149.5t-205.5 55zM400 107h-81v90h81v-90zM400 248h-81v90h81v-90zM400 390h-81v90h81v-90zM710 109h-273v88h273v-88zM710 249h-273v88h273
v-88zM710 388h-273v89h273v-89z" />
    <glyph glyph-name="uF001C" unicode="&#xf001c;" horiz-adv-x="1024" 
d="M400 243h-42q-11 0 -11 -10v-18q0 -10 11 -10h42q11 0 11 10v18q0 10 -11 10zM430 469h154q7 0 10 5.5t0 11t-10 5.5h-154q-7 0 -10 -5.5t0 -11t10 -5.5zM368 312h278q18 0 15 18l-14 97q-3 20 -22 20h-235q-19 0 -22 -20l-15 -97q-2 -18 15 -18zM657 243h-42
q-11 0 -11 -10v-18q0 -10 11 -10h42q11 0 11 10v18q0 10 -11 10zM514.5 707q-111.5 0 -205.5 -55t-149 -149t-55 -205.5t55 -205.5t149 -149t205.5 -55t205.5 55t149 149t55 205.5t-55 205.5t-149 149t-205.5 55zM509 524h-1h-3h4zM694 141h-31v-29q0 -16 -13 -23t-26 0
t-13 23v29h-207v-29q0 -16 -13 -23t-26 0t-13 23v29h-31v185l11 134q3 11 11.5 19.5t17 13t23.5 10.5q19 8 56 14.5t67 6.5t67 -6.5t56 -14.5q16 -6 24.5 -10.5t17 -13t10.5 -19.5l12 -134v-185z" />
    <glyph glyph-name="uF001D" unicode="&#xf001d;" horiz-adv-x="1024" 
d="M555 329h-61v-47h-49v-62h49v-47h61v47h47v62h-47v47zM513.5 699q-111.5 0 -205.5 -55t-149 -149t-55 -205.5t55 -205.5t149 -149t205.5 -55t205.5 55t149 149t55 205.5t-55 205.5t-149 149t-205.5 55zM712 110h-392v235q0 16 9.5 27.5t22.5 11.5h49q0 49 33.5 83.5
t81 34.5t81 -34.5t33.5 -83.5h49q13 0 23 -11.5t10 -27.5v-235zM515.5 463q-33.5 0 -57.5 -23t-24 -56h163q0 33 -24 56t-57.5 23z" />
    <glyph glyph-name="uF001E" unicode="&#xf001e;" horiz-adv-x="1024" 
d="M516 706q-111 0 -205 -54.5t-149 -149t-55 -205.5t55 -205.5t149 -149t205 -54.5t205.5 54.5t149.5 149t55 205.5t-55 205.5t-149.5 149t-205.5 54.5zM743 130h-189l-22 100l12 26l-23 13l-28 -13l12 -26l-14 -100h-197q0 11 0.5 38t0.5 31q3 8 9 13.5t11.5 8.5t16.5 6.5
t16 5.5q7 3 32 14t38 16q14 4 19 6q7 4 20 32l9 2q-1 7 -6 12.5t-6 8.5q-1 6 -1.5 12t-1 14t-1.5 12q0 -1 -2 -0.5t-4.5 1t-2.5 1.5q-4 2 -6.5 6.5t-3.5 11.5t-2 11.5t-1.5 12.5t-0.5 9q0 2 3.5 8.5t2.5 12.5q-18 85 35 103q59 24 94 1l9 -8l15 -3q3 -1 6 -6t4 -8l2 -4
q4 -17 3 -32q0 -1 -1.5 -19.5t-0.5 -24.5q0 -3 5 -13q6 -12 1 -35q-2 -12 -6 -18q-2 -3 -7 -5.5t-7 -5.5q-3 -5 -3.5 -16t-1.5 -14.5t-6.5 -10.5t-5.5 -14q2 -1 6 -1.5t6 -0.5q13 -28 19 -32q6 -2 20 -6q13 -5 38 -16t32 -14q4 -2 15 -6t16.5 -6.5t12 -8t9.5 -13.5
q0 -4 0.5 -31t0.5 -38z" />
    <glyph glyph-name="uF001F" unicode="&#xf001f;" horiz-adv-x="1024" 
d="M376 168h-56v-52h56v52zM376 351h-56v-52h56v52zM501 129h56v52h-56v-52zM376 259h-56v-52h56v52zM585 207h56v52h-56v-52zM515 286h56v52h-56v-52zM514 711q-111 0 -205.5 -54.5t-149 -149t-54.5 -205.5t54.5 -205.5t149 -149t205.5 -54.5t205.5 54.5t149 149
t54.5 205.5t-54.5 205.5t-149 149t-205.5 54.5zM418 77h-140v313h140v-313zM668 77h-195v300h28v65h42v65h14v65h28v-65h14v-65h42v-65h27v-300z" />
    <glyph glyph-name="uF0020" unicode="&#xf0020;" horiz-adv-x="1024" 
d="M588 347q-20 17 -46 24q-15 4 -31 4q-44 0 -76 -28q-31 -28 -32 -68l1 -10q2 -20 13 -37l3 -6v-1q8 -13 24.5 -34.5t23.5 -37.5t8 -37v-1h17v60h37v-60h17v1q0 21 9 42.5t18.5 34.5t20.5 25t11 14q11 17 13 37v10q0 40 -31 68zM510.5 709q-111.5 0 -205.5 -54.5
t-149 -149t-55 -205.5t55 -205.5t149 -149t205.5 -54.5t205.5 54.5t149 149t55 205.5t-55 205.5t-149 149t-205.5 54.5zM610 527l28 -11l-38 -100l-28 11zM500 543h30v-108h-30v108zM421 525l38 -100l-28 -11l-38 100zM315 475l73 -76l-21 -22l-73 76zM548 4h-74v22h74v-22z
M570 37h-118v33h118v-33zM656 266q-3 -26 -17 -50l-2 -2l-5 -5l-8 -7q-4 -5 -8.5 -11t-9 -12.5t-8.5 -14t-7 -15.5t-5 -17t-2 -18l-2 -16q-4 -16 -18 -16h-105q-14 0 -18 16l-2 16q0 9 -2 18t-5 17t-7 15.5t-8.5 14t-9 12.5t-9.5 11l-7 7l-5 5l-2 2q-14 23 -17 50l-1 12
q0 54 42.5 92t102.5 38q22 0 41 -5q36 -9 62 -33q42 -38 42 -92v-12zM655 369l-20 22l73 76l21 -22z" />
    <glyph glyph-name="uF0021" unicode="&#xf0021;" horiz-adv-x="1024" 
d="M899 281v4q-3 107 -34.5 189t-85 132t-121 75t-146.5 25q-78 0 -146 -25.5t-121 -75.5t-85 -132t-34 -188h-1q0 -2 1 -4q-1 -8 -1 -15h1q8 -105 61 -191.5t139 -136.5t186 -50t186 50t139 136.5t61 191.5h1v15zM493 190q4 -16 10.5 -23.5t20.5 -7.5h58q21 0 21 -20v-137
q0 -23 -23 -23h-52l-16 3q-59 26 -91.5 101.5t-35.5 191.5q3 118 34 211.5t83 122.5q6 3 11 4q3 2 9.5 2.5t12.5 0.5h5h40q23 0 23 -24v-136q0 -21 -21 -21h-42h-3h-13q-14 0 -20.5 -7.5t-10.5 -23.5q-4 -14 -8 -119h-1v-9v-10h1q3 -60 8 -76z" />
    <glyph glyph-name="uF0022" unicode="&#xf0022;" horiz-adv-x="1024" 
d="M509.5 485q-36.5 0 -62 -26.5t-25.5 -63.5t25.5 -63.5t62 -26.5t62 26.5t25.5 63.5t-25.5 63.5t-62 26.5zM510 707q-105 0 -194.5 -54.5t-141 -149t-51.5 -205.5t51.5 -205.5t140.5 -149.5t194.5 -55t194.5 55t140.5 149.5t51.5 205.5t-51.5 205.5t-140.5 149t-194 54.5z
M661 305l-151 -316l-152 316q-23 42 -23 90q0 75 51 128t123.5 53t124 -53t51.5 -128q0 -48 -24 -90z" />
    <glyph glyph-name="uF0035" unicode="&#xf0035;" horiz-adv-x="1024" 
d="M509 557q106 0 181 -75t75 -181t-75 -181t-181 -75t-181 75t-75 181t75 181t181 75z" />
    <glyph glyph-name="uF0069" unicode="&#xf0069;" horiz-adv-x="1024" 
d="M639 278q-1 -1 0 -1.5t2 0t0 1.5t-2 0zM643 286q-5 0 -8 -3.5t-3 -8t3 -8t8 -3.5t8.5 3.5t3.5 8t-3.5 8t-8.5 3.5zM644 267l-7 7v4l3 2h4l6 -7zM362.5 401.5q-11.5 -11.5 -11.5 -28t11.5 -28t28 -11.5t28 11.5t11.5 28t-11.5 28t-28 11.5t-28 -11.5zM506 684
q-111 0 -205.5 -55t-149 -149t-54.5 -205.5t54.5 -205.5t149 -149t205.5 -55t205.5 55t149 149t54.5 205.5t-54.5 205.5t-149 149t-205.5 55zM529 13l-236 236v139l83 83h139l236 -236z" />
  </font>
</defs>
</svg>
